<svg width="51" height="51" viewBox="0 0 51 51" fill="none" xmlns="http://www.w3.org/2000/svg">
<path d="M19.125 43.5625C17.0595 43.5625 15.3035 42.8393 13.8571 41.3929C12.4107 39.9465 11.6875 38.1905 11.6875 36.125V18.0179C10.4479 17.5575 9.43004 16.8555 8.63388 15.912C7.83771 14.9685 7.43892 13.9188 7.4375 12.7628C7.4375 11.2838 7.95388 10.0265 8.98663 8.99087C10.018 7.95529 11.271 7.4375 12.7458 7.4375C14.2205 7.4375 15.475 7.95529 16.5091 8.99087C17.5433 10.0265 18.0611 11.2845 18.0625 12.7649C18.0625 13.918 17.6644 14.9664 16.8683 15.9099C16.0721 16.8534 15.0535 17.5567 13.8125 18.02V36.125C13.8125 37.5856 14.3338 38.8365 15.3765 39.8778C16.4178 40.9176 17.6701 41.4375 19.1335 41.4375C20.5969 41.4375 21.8464 40.9176 22.882 39.8778C23.9176 38.8379 24.4361 37.587 24.4375 36.125V14.875C24.4375 12.8095 25.1607 11.0535 26.6071 9.60712C28.0535 8.16071 29.8095 7.4375 31.875 7.4375C33.9405 7.4375 35.6965 8.16071 37.1429 9.60712C38.5893 11.0535 39.3125 12.8095 39.3125 14.875V32.9821C40.5521 33.4425 41.5707 34.1445 42.3682 35.088C43.1658 36.0315 43.5639 37.0805 43.5625 38.2351C43.5625 39.7155 43.0468 40.9735 42.0155 42.0091C40.9827 43.0447 39.729 43.5625 38.2543 43.5625C36.7795 43.5625 35.525 43.0447 34.4909 42.0091C33.4567 40.9735 32.9389 39.7162 32.9375 38.2372C32.9375 37.0827 33.3363 36.0244 34.1339 35.0625C34.9315 34.1006 35.9493 33.4071 37.1875 32.9821V14.875C37.1875 13.4144 36.6669 12.1635 35.6256 11.1223C34.583 10.0824 33.3299 9.5625 31.8665 9.5625C30.4031 9.5625 29.1536 10.0831 28.118 11.1244C27.0824 12.1656 26.5639 13.4158 26.5625 14.875V36.125C26.5625 38.1905 25.8393 39.9465 24.3929 41.3929C22.9465 42.8393 21.1905 43.5625 19.125 43.5625Z" fill="white"/>
</svg>
